<svg width="43" height="22" viewBox="0 0 43 22" fill="none" xmlns="http://www.w3.org/2000/svg">
<path d="M39.9244 22C39.207 22.0014 38.5118 21.746 37.9594 21.2779L21.503 7.21296L5.01591 20.7756C4.70186 21.0364 4.34051 21.2311 3.95262 21.3486C3.56473 21.4662 3.15795 21.5041 2.75566 21.4604C2.35338 21.4166 1.96351 21.292 1.60848 21.0936C1.25345 20.8953 0.940254 20.6272 0.686891 20.3047C0.431859 19.9835 0.241409 19.614 0.126486 19.2174C0.0115618 18.8207 -0.025569 18.4048 0.0172275 17.9934C0.060024 17.5821 0.181904 17.1834 0.375861 16.8204C0.569819 16.4573 0.832031 16.1371 1.14742 15.878L19.5688 0.714198C20.1181 0.252435 20.8072 0 21.5184 0C22.2295 0 22.9186 0.252435 23.468 0.714198L41.8893 16.4117C42.2002 16.6752 42.4572 16.9989 42.6455 17.3642C42.8339 17.7295 42.95 18.1292 42.987 18.5404C43.0241 18.9516 42.9815 19.3662 42.8616 19.7605C42.7417 20.1549 42.547 20.5211 42.2884 20.8384C42.0027 21.1985 41.6426 21.4895 41.2338 21.6903C40.8251 21.8912 40.3779 21.9969 39.9244 22Z" fill="#21CDAE"/>
</svg>
